#!OML:ASF X:\für Bonn\!DataBase\2005_08_11_Bastian_Final\c3d\Bastian.ASF
:FULLY-SPECIFIED
:DEGREES
61
root 0.0641891 16.2552 1.43067 136.981 -10.4553 -172.029
lowerback 53.5189 -5.78019 7.33699
upperback 16.2521 -15.3315 6.76824
thorax -0.957775 -12.8348 9.72274
lowerneck -6.18864 -4.82233 -9.55829
upperneck -15.3787 -4.14293 9.31639
head -3.10945 -1.37382 4.44199
rclavicle -1.03368e-014 -5.1684e-014
rhumerus -44.3946 33.1668 -97.3844
rradius 36.7555
rwrist -26.2092
rhand -35.6914 10.9384
rfingers 7.12502
rthumb -8.81206 -18.8576
lclavicle -1.03368e-014 -5.1684e-014
lhumerus 55.1198 -20.9307 71.4939
lradius 122.842
lwrist -21.4351
lhand -54.5441 -20.3676
lfingers 7.12502
lthumb -26.944 7.73148
rfemur -90.8837 4.91193 40.5396
rtibia 138.049
rfoot 11.1039 -6.74737
rtoes -9.47896
lfemur 24.0735 0.125644 -13.1997
ltibia 42.4121
lfoot -16.7064 -8.42923
ltoes 10.4827
62
root 0.0724402 16.2782 1.44538 137.282 -10.1228 -171.969
lowerback 53.2317 -5.74944 7.46331
upperback 16.2939 -15.2439 6.78531
thorax -0.904718 -12.7753 9.6207
lowerneck -6.31981 -4.80603 -9.42086
upperneck -15.5858 -4.08049 9.21875
head -3.16248 -1.32749 4.39067
rclavicle 3.65764e-014 -4.29375e-014
rhumerus -44.1755 32.9894 -97.2983
rradius 36.8401
rwrist -26.0662
rhand -35.7344 10.8234
rfingers 7.12502
rthumb -8.85354 -18.9709
lclavicle 3.65764e-014 -4.29375e-014
lhumerus 54.7872 -21.3142 71.6382
lradius 123.003
lwrist -22.2893
lhand -54.8326 -19.9467
lfingers 7.12502
lthumb -27.22 8.10944
rfemur -90.3046 4.75203 40.4276
rtibia 137.797
rfoot 10.8862 -6.60025
rtoes -9.30799
lfemur 23.8676 0.128085 -13.0718
ltibia 42.1705
lfoot -16.6134 -8.17272
ltoes 10.5648
63
root 0.0809144 16.3045 1.46072 137.61 -9.77712 -171.922
lowerback 52.9008 -5.71625 7.58001
upperback 16.3516 -15.1573 6.77377
thorax -0.835796 -12.7102 9.48528
lowerneck -6.47619 -4.78669 -9.24524
upperneck -15.7555 -4.0161 9.12608
head -3.20106 -1.2832 4.33324
rclavicle -1.98785e-014 3.81667e-014
rhumerus -43.9076 32.8029 -97.2234
rradius 36.91
rwrist -25.9285
rhand -35.7303 10.7528
rfingers 7.12502
rthumb -8.84954 -19.0416
lclavicle -1.98785e-014 3.81667e-014
lhumerus 54.4088 -21.7283 71.8472
lradius 123.101
lwrist -23.2547
lhand -55.1536 -19.3499
lfingers 7.12502
lthumb -27.527 8.65771
rfemur -89.6043 4.57416 40.3208
rtibia 137.516
rfoot 10.6042 -6.4487
rtoes -9.10219
lfemur 23.6659 0.149294 -12.9573
ltibia 41.8643
lfoot -16.5092 -7.83313
ltoes 10.2407
64
root 0.0893805 16.3326 1.47499 137.994 -9.42017 -171.894
lowerback 52.5005 -5.66956 7.68516
upperback 16.4032 -15.039 6.76094
thorax -0.77171 -12.6177 9.33781
lowerneck -6.63648 -4.77514 -9.06274
upperneck -15.8986 -3.96936 9.00446
head -3.23069 -1.24824 4.26491
rclavicle -2.82274e-014 -4.85035e-014
rhumerus -43.6004 32.5559 -97.0898
rradius 36.9465
rwrist -25.7033
rhand -35.6891 10.7544
rfingers 7.12502
rthumb -8.80978 -19.0417
lclavicle -2.82274e-014 -4.85035e-014
lhumerus 53.9916 -22.1748 72.1851
lradius 123.143
lwrist -24.2745
lhand -55.4546 -18.554
lfingers 7.12502
lthumb -27.8149 9.40738
rfemur -88.8593 4.37674 40.1867
rtibia 137.237
rfoot 10.2305 -6.20283
rtoes -9.17576
lfemur 23.4441 0.180494 -12.8656
ltibia 41.5178
lfoot -16.3911 -7.47581
ltoes 10.0307
65
root 0.0977788 16.365 1.48898 138.402 -9.04341 -171.825
lowerback 52.0656 -5.64143 7.81538
upperback 16.4457 -14.9286 6.76033
thorax -0.710056 -12.5259 9.19309
lowerneck -6.79282 -4.76518 -8.94094
upperneck -16.053 -3.91768 8.92237
head -3.26196 -1.20848 4.2193
rclavicle -3.93594e-014 9.85972e-014
rhumerus -43.2905 32.3778 -96.9576
rradius 36.981
rwrist -25.4598
rhand -35.6302 10.8339
rfingers 7.12502
rthumb -8.753 -18.9646
lclavicle -3.93594e-014 9.85972e-014
lhumerus 53.5046 -22.5587 72.5227
lradius 123.067
lwrist -25.2728
lhand -55.8447 -17.7117
lfingers 7.12502
lthumb -28.1878 10.1888
rfemur -88.0056 4.15697 40.0845
rtibia 136.927
rfoot 9.78522 -5.82502
rtoes -9.83758
lfemur 23.1967 0.172201 -12.7508
ltibia 41.158
lfoot -16.2667 -7.10779
ltoes 9.79872
66
root 0.106295 16.3965 1.50154 138.836 -8.65807 -171.766
lowerback 51.5821 -5.61037 7.94826
upperback 16.4869 -14.7958 6.7386
thorax -0.652076 -12.4106 9.01295
lowerneck -6.91924 -4.75876 -8.80471
upperneck -16.2008 -3.87586 8.84925
head -3.2951 -1.17655 4.17443
rclavicle 4.33351e-014 -1.35174e-013
rhumerus -42.9942 32.2111 -96.8398
rradius 37.0527
rwrist -25.2542
rhand -35.5191 10.9404
rfingers 7.12502
rthumb -8.64573 -18.8625
lclavicle 4.33351e-014 -1.35174e-013
lhumerus 52.971 -22.9227 72.7553
lradius 122.893
lwrist -26.0724
lhand -56.3006 -17.0047
lfingers 7.12502
lthumb -28.6234 10.8232
rfemur -87.0176 3.95021 39.9303
rtibia 136.566
rfoot 9.06792 -5.38675
rtoes -10.8165
lfemur 22.9318 0.156984 -12.6613
ltibia 40.815
lfoot -16.1796 -6.67142
ltoes 9.53545
67
root 0.114452 16.4232 1.51038 139.31 -8.30307 -171.724
lowerback 51.0267 -5.56908 8.03206
upperback 16.5349 -14.6695 6.71994
thorax -0.572482 -12.2953 8.85027
lowerneck -7.07977 -4.75089 -8.64076
upperneck -16.3068 -3.83833 8.74329
head -3.31173 -1.1479 4.11325
rclavicle -1.82882e-014 1.60618e-013
rhumerus -42.5987 31.9933 -96.6505
rradius 37.0385
rwrist -24.9403
rhand -35.3997 11.1533
rfingers 7.12502
rthumb -8.53047 -18.6544
lclavicle -1.82882e-014 1.60618e-013
lhumerus 52.4004 -23.2131 72.8723
lradius 122.632
lwrist -26.7073
lhand -56.8716 -16.351
lfingers 7.12502
lthumb -29.1688 11.3836
rfemur -85.8982 3.72224 39.6556
rtibia 136.175
rfoot 8.07738 -4.90471
rtoes -11.93
lfemur 22.6248 0.118716 -12.625
ltibia 40.5009
lfoot -16.1094 -6.24691
ltoes 9.42578
68
root 0.121924 16.4478 1.51719 139.822 -7.92647 -171.686
lowerback 50.4105 -5.53433 8.13647
upperback 16.581 -14.5277 6.68376
thorax -0.492944 -12.16 8.64898
lowerneck -7.24041 -4.74468 -8.50466
upperneck -16.3878 -3.80049 8.68358
head -3.31853 -1.12046 4.07065
rclavicle -8.66701e-014 1.23246e-013
rhumerus -42.2468 31.8595 -96.4951
rradius 37.1021
rwrist -24.6982
rhand -35.302 11.3902
rfingers 7.12502
rthumb -8.43627 -18.4213
lclavicle -8.66701e-014 1.23246e-013
lhumerus 51.862 -23.4741 72.9853
lradius 122.314
lwrist -27.0624
lhand -57.3251 -15.9231
lfingers 7.12502
lthumb -29.6018 11.7355
rfemur -84.5981 3.48824 39.2874
rtibia 135.712
rfoot 7.07585 -4.42792
rtoes -13.1392
lfemur 22.2731 0.0893239 -12.595
ltibia 40.2241
lfoot -16.0861 -5.75084
ltoes 8.91831
69
root 0.130317 16.4726 1.52176 140.336 -7.57398 -171.65
lowerback 49.7544 -5.48761 8.20799
upperback 16.6306 -14.3868 6.6593
thorax -0.396017 -12.026 8.46863
lowerneck -7.44144 -4.74184 -8.34876
upperneck -16.4423 -3.77041 8.58673
head -3.31213 -1.09608 4.01196
rclavicle 3.69739e-014 -5.56597e-014
rhumerus -41.8315 31.739 -96.298
rradius 37.1222
rwrist -24.4616
rhand -35.2011 11.6586
rfingers 7.12502
rthumb -8.3388 -18.1568
lclavicle 3.69739e-014 -5.56597e-014
lhumerus 51.2888 -23.7225 73.123
lradius 121.954
lwrist -27.1348
lhand -57.6924 -15.7746
lfingers 7.12502
lthumb -29.9524 11.8213
rfemur -83.1637 3.20918 38.8559
rtibia 135.184
rfoot 6.18561 -3.98616
rtoes -14.2898
lfemur 21.9264 0.0287839 -12.5904
ltibia 39.9555
lfoot -16.081 -5.27757
ltoes 8.57357
